<svg xmlns="http://www.w3.org/2000/svg" xmlns:xlink="http://www.w3.org/1999/xlink" style="margin:auto;background:#fff;display:block;" width="200px" height="200px" viewBox="0 0 100 130" preserveAspectRatio="xMidYMid">
<defs>
  <mask id="ldio-s5tm2y9lhw8-mask">
    <rect x="15" y="15" width="70" height="70" fill="white"/>
  </mask>
</defs>
<rect x="15" y="15" width="70" height="70" rx="40" ry="40" fill="#f2b450"/>
<g mask="url(#ldio-s5tm2y9lhw8-mask)">
  <rect x="-100" y="-250" width="300" height="300" rx="90" ry="90" fill="#ffbe40" opacity="0.4">
    <animateTransform attributeName="transform" type="rotate" dur="1s" repeatCount="indefinite" values="0 50 -100;90 50 -100" keyTimes="0;1"/>
  </rect>

  <rect x="-100" y="-260" width="300" height="300" rx="95" ry="95" fill="#ffe9bf" opacity="0.4">
    <animateTransform attributeName="transform" type="rotate" dur="1.5151515151515151s" repeatCount="indefinite" values="0 50 -110;90 50 -110" keyTimes="0;1"/>
  </rect>

  <rect x="-100" y="-270" width="300" height="300" rx="100" ry="100" fill="#fff4e0" opacity="0.4">
    <animateTransform attributeName="transform" type="rotate" dur="3.0303030303030303s" repeatCount="indefinite" values="0 50 -120;90 50 -120" keyTimes="0;1"/>
  </rect>
<g transform="translate(42,28)" xmlns="http://www.w3.org/2000/svg" id="图层_2" data-name="图层 2"><g id="图层_1-2" data-name="图层 1"><g id="图层_1-2-2" data-name="图层 1-2"><path d="M14.55,37.62A21.62,21.62,0,0,1,11.77,41a7.85,7.85,0,0,1-6.7,2.72A4.59,4.59,0,0,1,.18,39.41c0-.08,0-.15,0-.23v-.76A19.91,19.91,0,0,1,1.63,32.8L6.34,20.66a10.89,10.89,0,0,0,.74-2.17,1.1,1.1,0,0,0-.19-.73c-.18-.18-.36-.36-.54-.36A4,4,0,0,0,3.8,18.85,8.68,8.68,0,0,0,1.63,21.2c-.18.18-.55.9-1.29.72-.54-.18-.36-.54,0-1.45a18.15,18.15,0,0,1,4-5,8.17,8.17,0,0,1,6-2.18,5.19,5.19,0,0,1,3.26,1.28,3.33,3.33,0,0,1,1.1,3.08,10,10,0,0,1-.91,4L8,36.08a11.51,11.51,0,0,0-.73,2.36,1.79,1.79,0,0,0,.18.91c.18.18.36.36.55.36a2.49,2.49,0,0,0,2-1.09,36.26,36.26,0,0,0,2.34-3.29h0a1.66,1.66,0,0,1,1.87-.14A1.81,1.81,0,0,1,14.55,37.62Z" style="fill:#fff"/><path d="M17.43,8a4.63,4.63,0,0,1-6.54-.19l0,0A4.36,4.36,0,0,1,9.58,4.54,4.64,4.64,0,0,1,14.31,0a4.86,4.86,0,0,1,2.18.55,5.28,5.28,0,0,1,2,2A4.67,4.67,0,0,1,17.43,8Z" style="fill:#fff"/></g></g></g>
<rect x="0" y="0" width="100" height="100" rx="70" ry="70" fill="" stroke-width="30"  stroke="white" stroke-opacity="1"   fill-opacity="0" />
</g>
</svg>